<?xml version="1.0" encoding="UTF-8"?>
<svg enable-background="new 0 0 271.953 271.953" version="1.1" viewBox="0 0 271.95 271.95" xml:space="preserve"
     xmlns="http://www.w3.org/2000/svg">
        <g fill="#5f0">
                <path d="m135.98 271.95c75.097 0 135.98-60.879 135.98-135.98s-60.88-135.98-135.98-135.98-135.98 60.879-135.98 135.98 60.879 135.98 135.98 135.98zm114.22-135.98c0 62.979-51.241 114.22-114.22 114.22s-114.22-51.241-114.22-114.22 51.241-114.22 114.22-114.22 114.22 51.241 114.22 114.22z"/>
            <path d="m112.3 205.03c2.692 1.115 5.434 1.659 8.235 1.659 5.662 0 11.183-2.208 15.344-6.375l48.93-48.952c8.496-8.496 8.485-22.273-0.011-30.769l-48.957-48.952c-4.161-4.161-9.73-6.375-15.393-6.375-2.801 0-5.461 0.544-8.153 1.659-8.126 3.367-13.255 11.297-13.255 20.097v97.903c-1e-3 8.803 5.129 16.738 13.26 20.105zm8.496-116.42v-1.588l48.952 48.952-48.952 48.952v-96.316z"/>
        </g>
</svg>
