<?xml version="1.0" encoding="iso-8859-1"?>
<svg enable-background="new 0 0 265.405 265.405" version="1.1" viewBox="0 0 265.4 265.4" xml:space="preserve"
     xmlns="http://www.w3.org/2000/svg">
    <g fill="#FF0000">
        <path d="m132.7 0c-73.173 0-132.7 59.53-132.7 132.7s59.53 132.7 132.7 132.7c73.172 0 132.7-59.53 132.7-132.7s-59.53-132.7-132.7-132.7zm0 250.4c-64.902 0-117.7-52.801-117.7-117.7s52.801-117.7 117.7-117.7c64.901 0 117.7 52.801 117.7 117.7s-52.801 117.7-117.7 117.7z"/>
        <path d="m174.82 73.089h-84.227c-9.649 0-17.5 7.851-17.5 17.5v84.227c0 9.649 7.851 17.5 17.5 17.5h84.227c9.649 0 17.5-7.851 17.5-17.5v-84.227c0-9.649-7.851-17.5-17.5-17.5zm2.5 101.73c0 1.355-1.145 2.5-2.5 2.5h-84.227c-1.355 0-2.5-1.145-2.5-2.5v-84.227c0-1.355 1.145-2.5 2.5-2.5h84.227c1.355 0 2.5 1.145 2.5 2.5v84.227z"/>
    </g>
</svg>
